HIERARCHY
ROOT Hips
{
	OFFSET 0.000000 0.000000 0.000000
	CHANNELS 6 Xposition Yposition Zposition Xrotation Yrotation Zrotation
	JOINT LeftUpLeg_virtual
	{
		OFFSET 0.000000 0.000000 0.000000
		CHANNELS 3 Xrotation Yrotation Zrotation
		JOINT LeftUpLeg
		{
			OFFSET 15.427100 -6.655098 0.678600
			CHANNELS 3 Xrotation Yrotation Zrotation
			JOINT LeftLeg
			{
				OFFSET 4.081073 -39.591068 13.024000
				CHANNELS 3 Xrotation Yrotation Zrotation
				JOINT LeftFoot
				{
					OFFSET -4.081074 -37.707932 -15.979700
					CHANNELS 3 Xrotation Yrotation Zrotation
					JOINT LeftToeBase
					{
						OFFSET 5.346399 -15.068900 20.645000
						CHANNELS 3 Xrotation Yrotation Zrotation
						JOINT LeftToe_End
						{
							OFFSET 2.754700 0.931300 11.300900
							CHANNELS 3 Xrotation Yrotation Zrotation
							End Site
							{
								OFFSET 0 0 0
							}
						}
					}
				}
			}
		}
	}
	JOINT RightUpLeg_virtual
	{
		OFFSET 0.000000 0.000000 0.000000
		CHANNELS 3 Xrotation Yrotation Zrotation
		JOINT RightUpLeg
		{
			OFFSET -15.569500 -6.655098 0.678600
			CHANNELS 3 Xrotation Yrotation Zrotation
			JOINT RightLeg
			{
				OFFSET -4.081825 -39.591045 13.023800
				CHANNELS 3 Xrotation Yrotation Zrotation
				JOINT RightFoot
				{
					OFFSET 4.081824 -37.707954 -15.979600
					CHANNELS 3 Xrotation Yrotation Zrotation
					JOINT RightToeBase
					{
						OFFSET -5.346400 -15.068900 20.645000
						CHANNELS 3 Xrotation Yrotation Zrotation
						JOINT RightToe_End
						{
							OFFSET -2.754700 0.931300 11.300900
							CHANNELS 3 Xrotation Yrotation Zrotation
							End Site
							{
								OFFSET 0 0 0
							}
						}
					}
				}
			}
		}
	}
	JOINT Spine_virtual
	{
		OFFSET 0.000000 0.000000 0.000000
		CHANNELS 3 Xrotation Yrotation Zrotation
		JOINT Spine
		{
			OFFSET -0.279200 12.230698 -2.892100
			CHANNELS 3 Xrotation Yrotation Zrotation
			JOINT Spine1
			{
				OFFSET -0.232667 10.192268 -1.242267
				CHANNELS 3 Xrotation Yrotation Zrotation
				JOINT Spine1_split
				{
					OFFSET -0.232667 10.192268 -1.242267
					CHANNELS 3 Xrotation Yrotation Zrotation
					JOINT Spine2
					{
						OFFSET -0.232667 10.192268 -1.242267
						CHANNELS 3 Xrotation Yrotation Zrotation
						JOINT Neck_virtual
						{
							OFFSET 0.000000 0.000000 0.000000
							CHANNELS 3 Xrotation Yrotation Zrotation
							JOINT Neck
							{
								OFFSET -0.418800 17.814194 8.416900
								CHANNELS 3 Xrotation Yrotation Zrotation
								JOINT Head
								{
									OFFSET 0.000000 7.031097 3.806800
									CHANNELS 3 Xrotation Yrotation Zrotation
									JOINT HeadTop_End
									{
										OFFSET 0.000000 24.646606 12.978600
										CHANNELS 3 Xrotation Yrotation Zrotation
										End Site
										{
											OFFSET 0 0 0
										}
									}
								}
							}
						}
						JOINT LeftShoulder_virtual
						{
							OFFSET 0.000000 0.000000 0.000000
							CHANNELS 3 Xrotation Yrotation Zrotation
							JOINT LeftShoulder
							{
								OFFSET 8.476499 7.247704 -3.868750
								CHANNELS 3 Xrotation Yrotation Zrotation
								JOINT LeftShoulder_split
								{
									OFFSET 8.476499 7.247704 -3.868750
									CHANNELS 3 Xrotation Yrotation Zrotation
									JOINT LeftArm
									{
										OFFSET 9.308998 -2.777710 0.208600
										CHANNELS 3 Xrotation Yrotation Zrotation
										JOINT LeftForeArm
										{
											OFFSET 29.972298 0.000000 0.000000
											CHANNELS 3 Xrotation Yrotation Zrotation
											JOINT LeftHand
											{
												OFFSET 26.026505 0.000000 0.000000
												CHANNELS 3 Xrotation Yrotation Zrotation
												End Site
												{
													OFFSET 0 0 0
												}
											}
										}
									}
								}
							}
						}
						JOINT RightShoulder_virtual
						{
							OFFSET 0.000000 0.000000 0.000000
							CHANNELS 3 Xrotation Yrotation Zrotation
							JOINT RightShoulder
							{
								OFFSET -7.570500 7.247704 -3.868750
								CHANNELS 3 Xrotation Yrotation Zrotation
								JOINT RightShoulder_split
								{
									OFFSET -7.570500 7.247704 -3.868750
									CHANNELS 3 Xrotation Yrotation Zrotation
									JOINT RightArm
									{
										OFFSET -9.308998 -2.777710 0.208500
										CHANNELS 3 Xrotation Yrotation Zrotation
										JOINT RightForeArm
										{
											OFFSET -29.972300 0.000000 0.000000
											CHANNELS 3 Xrotation Yrotation Zrotation
											JOINT RightHand
											{
												OFFSET -26.026505 0.000000 0.000000
												CHANNELS 3 Xrotation Yrotation Zrotation
												End Site
												{
													OFFSET 0 0 0
												}
											}
										}
									}
								}
							}
						}
					}
				}
			}
		}
	}
}
MOTION
Frames: 6
Frame Time: 0.03333333
13.031733 89.881981 -19.376015 0.000000 0.000000 0.000000 14.952353 -20.290583 -15.585158 -26.842568 -10.177342 15.278418 44.077072 15.796969 9.373326 -15.740388 21.653127 -16.781679 -8.445907 -3.410303 7.145401 0.000000 0.000000 0.000000 15.883759 -19.283673 -16.062472 -28.168267 6.902062 21.053467 -1.003692 -3.258745 3.415455 8.612746 2.287542 10.633513 7.558146 -1.151906 -3.651824 0.000000 0.000000 0.000000 14.615498 -23.363161 -16.978894 14.852776 -8.012674 17.435830 9.425511 1.938613 7.519048 0.179664 -0.742767 0.069491 0.000000 0.000000 0.000000 14.086201 5.669268 6.465498 -18.286271 2.581165 20.371830 7.690591 -76.593837 -29.670584 0.000000 0.000000 0.000000 14.076997 3.103856 5.948847 1.940545 -18.872552 -13.524536 7.224193 -2.533772 -4.822570 -28.008808 -6.247553 -70.782289 14.278792 -24.533940 12.290372 0.000000 0.000000 0.000000 13.977954 3.658526 7.712878 5.074378 15.606103 11.701273 6.510954 11.445788 -3.727439 -3.825329 30.550173 42.677935 -11.337980 31.861787 -0.762021 0.000000 0.000000 0.000000 
12.854649 89.960464 -19.366730 0.000000 0.000000 0.000000 14.851061 -19.960207 -15.669690 -26.885218 -10.054570 15.501246 43.944863 15.669463 9.399939 -15.560148 21.173122 -17.063979 -8.472027 -3.397533 7.264036 0.000000 0.000000 0.000000 15.775078 -18.960626 -16.157157 -27.893169 7.028364 21.093854 -1.133101 -3.282849 3.421425 8.605728 2.118543 10.515924 7.471935 -1.182373 -3.536726 0.000000 0.000000 0.000000 14.446299 -23.028060 -17.086478 14.907496 -8.015752 17.666404 9.232957 2.009640 7.557043 0.175378 -0.727085 0.067887 0.000000 0.000000 0.000000 13.949678 5.753267 6.534330 -17.950985 2.414454 20.385799 7.542480 -77.329380 -29.522140 0.000000 0.000000 0.000000 13.917795 3.209934 6.011328 1.921554 -18.770304 -13.724300 7.319689 -2.757289 -4.727059 -27.858906 -6.835864 -71.237575 14.188664 -24.757926 12.219201 0.000000 0.000000 0.000000 13.771671 3.700818 7.756865 5.124622 15.749899 11.325244 6.306496 11.402051 -3.635276 -2.948929 30.402668 42.746155 -11.308153 32.482980 -0.728285 0.000000 0.000000 0.000000 
12.666140 90.050430 -19.357620 0.000000 0.000000 0.000000 14.742325 -19.552513 -15.741272 -27.003662 -10.031525 15.712440 43.862068 15.467124 9.441084 -15.111669 20.597803 -17.550350 -8.666968 -3.406553 7.418992 0.000000 0.000000 0.000000 15.685898 -18.549766 -16.241920 -27.622299 7.165193 21.126282 -1.224654 -3.292931 3.428629 8.557347 1.909039 10.382991 7.403178 -1.215395 -3.444812 0.000000 0.000000 0.000000 14.284485 -22.609113 -17.187254 14.938035 -8.024645 17.882415 9.035962 2.084165 7.606636 0.173673 -0.712276 0.066892 0.000000 0.000000 0.000000 13.811760 5.840332 6.614061 -17.609421 2.229202 20.415707 7.236440 -78.101547 -29.452394 0.000000 0.000000 0.000000 13.761547 3.322950 6.086108 1.910752 -18.654698 -13.918548 7.434594 -3.011764 -4.633707 -27.603139 -7.382073 -71.684946 14.088658 -24.946535 12.137261 0.000000 0.000000 0.000000 13.566216 3.744655 7.803026 5.173528 15.902284 10.929195 6.143585 11.345443 -3.556726 -2.161184 30.226200 42.912555 -11.260779 33.098270 -0.705066 0.000000 0.000000 0.000000 
12.466819 90.136360 -19.352600 0.000000 0.000000 0.000000 14.624232 -19.096249 -15.806538 -27.110675 -10.084248 15.870674 43.791543 15.331560 9.487845 -14.690767 20.080041 -17.969345 -8.783435 -3.399748 7.507694 0.000000 0.000000 0.000000 15.600809 -18.090960 -16.321799 -27.357249 7.299719 21.165486 -1.282340 -3.273786 3.429349 8.461018 1.670304 10.240173 7.352371 -1.249162 -3.386817 0.000000 0.000000 0.000000 14.130737 -22.130479 -17.285926 14.931086 -8.041875 18.081065 8.837692 2.159051 7.671839 0.173517 -0.697473 0.066179 0.000000 0.000000 0.000000 13.675540 5.926848 6.708261 -17.247025 2.032052 20.444235 6.830787 -78.874287 -29.414261 0.000000 0.000000 0.000000 13.610503 3.440242 6.175868 1.912205 -18.514664 -14.099422 7.566218 -3.286113 -4.540004 -27.244986 -7.902707 -72.128246 13.983699 -25.076708 12.053038 0.000000 0.000000 0.000000 13.364042 3.786893 7.855262 5.226263 16.061644 10.503926 6.007019 11.283982 -3.474739 -1.481951 30.013852 43.196801 -11.198999 33.703777 -0.690577 0.000000 0.000000 0.000000 
12.258471 90.213562 -19.342026 0.000000 0.000000 0.000000 14.497042 -18.611816 -15.879691 -27.123909 -10.215922 15.932610 43.683274 15.343974 9.557779 -14.535928 19.754377 -18.193438 -8.672404 -3.354409 7.460667 0.000000 0.000000 0.000000 15.516033 -17.589352 -16.405665 -27.096363 7.415910 21.220462 -1.308645 -3.205771 3.415369 8.347240 1.427657 10.127577 7.249636 -1.282625 -3.368331 0.000000 0.000000 0.000000 13.988889 -21.613860 -17.387698 14.875834 -8.068835 18.266120 8.639636 2.230057 7.754609 0.170499 -0.681977 0.064777 0.000000 0.000000 0.000000 13.543542 6.009294 6.818893 -16.848429 1.832863 20.454441 6.405747 -79.613764 -29.342322 0.000000 0.000000 0.000000 13.462057 3.558798 6.281751 1.930256 -18.345611 -14.260055 7.712482 -3.573932 -4.448179 -26.806903 -8.412278 -72.570801 13.876784 -25.143280 11.974968 0.000000 0.000000 0.000000 13.165431 3.823603 7.917747 5.288356 16.226306 10.042328 5.894546 11.215887 -3.391164 -0.932193 29.765869 43.618479 -11.127642 34.287123 -0.680784 0.000000 0.000000 0.000000 
12.038362 90.285591 -19.334900 0.000000 0.000000 0.000000 14.372204 -18.070065 -15.972705 -27.063141 -10.448432 15.909628 43.546622 15.443659 9.667708 -14.624548 19.619252 -18.361715 -8.407155 -3.275199 7.281754 0.000000 0.000000 0.000000 15.425152 -17.046079 -16.507131 -26.817430 7.505712 21.310233 -1.321977 -3.085421 3.377491 8.229195 1.190850 10.060276 7.060867 -1.316264 -3.386008 0.000000 0.000000 0.000000 13.874414 -21.062056 -17.498245 14.772678 -8.105372 18.443348 8.444253 2.293451 7.853349 0.167255 -0.667806 0.062124 0.000000 0.000000 0.000000 13.416625 6.085330 6.945426 -16.404313 1.636563 20.430631 6.018492 -80.284543 -29.197570 0.000000 0.000000 0.000000 13.314983 3.675985 6.402028 1.967693 -18.153620 -14.389829 7.871918 -3.880153 -4.349984 -26.308468 -8.930963 -73.006027 13.772646 -25.168733 11.907820 0.000000 0.000000 0.000000 12.970381 3.853509 7.993002 5.363132 16.395060 9.545508 5.783887 11.153298 -3.310772 -0.524115 29.475548 44.187499 -11.051073 34.835358 -0.671529 0.000000 0.000000 0.000000 
